<svg width="18" height="18" viewBox="0 0 16 17" fill="none" xmlns="http://www.w3.org/2000/svg">
<path fill-rule="evenodd" clip-rule="evenodd" d="M15.68 8.68153C15.68 8.11426 15.6291 7.5688 15.5345 7.04517H8V10.1397H12.3055C12.12 11.1397 11.5564 11.987 10.7091 12.5543V14.5615H13.2945C14.8073 13.1688 15.68 11.1179 15.68 8.68153Z" fill="#4285F4"/>
<path fill-rule="evenodd" clip-rule="evenodd" d="M7.99998 16.5C10.16 16.5 11.9709 15.7836 13.2945 14.5618L10.7091 12.5545C9.99271 13.0345 9.07635 13.3181 7.99998 13.3181C5.91635 13.3181 4.15271 11.9109 3.52362 10.02H0.850891V12.0927C2.16725 14.7072 4.87271 16.5 7.99998 16.5Z" fill="#34A853"/>
<path fill-rule="evenodd" clip-rule="evenodd" d="M3.52364 10.0198C3.36364 9.53983 3.27273 9.0271 3.27273 8.49983C3.27273 7.97256 3.36364 7.45983 3.52364 6.97983V4.9071H0.850909C0.309091 5.9871 0 7.20892 0 8.49983C0 9.79074 0.309091 11.0126 0.850909 12.0926L3.52364 10.0198Z" fill="#FBBC05"/>
<path fill-rule="evenodd" clip-rule="evenodd" d="M7.99998 3.68182C9.17453 3.68182 10.2291 4.08545 11.0582 4.87818L13.3527 2.58364C11.9673 1.29273 10.1563 0.5 7.99998 0.5C4.87271 0.5 2.16725 2.29273 0.850891 4.90727L3.52362 6.98C4.15271 5.08909 5.91635 3.68182 7.99998 3.68182Z" fill="#EA4335"/>
</svg>
